<svg xmlns="http://www.w3.org/2000/svg" width="1200" height="1200" viewBox="0 0 1200 1200" version="1.1"><path d="" stroke="none" fill="#504c4c" fill-rule="evenodd"/><path d="M 575 112.615 C 475.779 118.402, 383.723 152.019, 306 210.849 C 285.538 226.338, 276.590 234.248, 254.452 256.420 C 215.143 295.788, 186.728 335.373, 162.510 384.500 C 114.819 481.245, 100.609 588.877, 121.521 694.971 C 137.300 775.022, 172.251 848.075, 225.832 913 C 237.919 927.646, 272.041 961.754, 287 974.142 C 358.357 1033.238, 442.165 1070.586, 531 1082.877 C 558.188 1086.639, 570.245 1087.434, 600 1087.425 C 629.992 1087.417, 644.446 1086.473, 669.500 1082.883 C 759.068 1070.049, 841.826 1033.092, 913 974.143 C 936.271 954.869, 970.673 918.670, 989.639 893.500 C 1086.078 765.515, 1113.456 598.181, 1062.894 445.752 C 1049.826 406.355, 1028.387 362.722, 1005.119 328.164 C 975.903 284.774, 934.568 241.144, 893.500 210.350 C 820.166 155.360, 735.358 122.614, 644 114.012 C 632.011 112.883, 586.275 111.957, 575 112.615 M 574 188.603 C 526.870 192.655, 490.614 200.565, 453 215.002 C 433.424 222.515, 418.261 229.595, 400.205 239.652 C 364.972 259.275, 333.313 283.536, 304.983 312.622 C 245.874 373.311, 207.650 448.569, 193.566 531.993 C 185.973 576.966, 186.355 629.091, 194.606 674 C 207.248 742.808, 235.433 803.795, 280.796 860.500 C 293.044 875.810, 323.967 906.720, 339.500 919.178 C 403.579 970.572, 473.139 999.838, 554.500 1009.636 C 575.465 1012.161, 624.232 1012.170, 645.500 1009.653 C 719.773 1000.864, 787.089 974.308, 845.500 930.754 C 929.886 867.833, 986.607 776.734, 1005.365 674 C 1010.252 647.235, 1011.442 632.737, 1011.442 600 C 1011.442 576.793, 1011.010 565.913, 1009.636 554.500 C 999.841 473.162, 970.930 404.303, 919.575 340 C 906.900 324.130, 876.241 293.456, 860 280.397 C 797.120 229.837, 725.596 199.719, 646.500 190.493 C 633.282 188.951, 584.683 187.684, 574 188.603 M 570.715 302.058 C 554.484 306.048, 540.292 314.518, 528.405 327.311 C 514.142 342.661, 507.368 358.969, 506.290 380.552 C 503.895 428.526, 542.369 469, 590.370 469 C 629.882 469, 663.894 441.994, 673.109 403.301 C 674.865 395.932, 675.128 392.385, 674.726 381.500 C 674.168 366.389, 672.653 360.025, 666.630 347.500 C 655.849 325.080, 635.666 308.605, 611.459 302.464 C 599.057 299.319, 582.532 299.154, 570.715 302.058 M 555 529.064 C 499.725 531.153, 453.488 532.893, 452.250 532.931 L 450 533 450 552.266 L 450 571.533 470.790 571.157 C 506.048 570.519, 519.821 574.423, 527 587.089 L 529.500 591.500 529.500 716 L 529.500 840.500 526.871 846.107 C 521.283 858.023, 515.303 859.961, 481.750 860.725 L 457 861.288 457 880.644 L 457 900 603.500 900 L 750 900 750 880.500 L 750 861 734.250 860.992 C 700.484 860.974, 687.817 857.322, 682.631 846.108 L 680.500 841.500 680.232 683.250 L 679.964 525 667.732 525.133 C 661.004 525.207, 610.275 526.976, 555 529.064" stroke="none" fill="#4c4c4c" fill-rule="evenodd"/></svg>